<svg width="402" height="24" viewBox="0 0 402 24" fill="none" xmlns="http://www.w3.org/2000/svg">
<rect width="402" height="24" fill="black"/>
<path d="M363.73 7.0127V17H362.083V8.96777L359.643 9.79492V8.43457L363.532 7.0127H363.73Z" fill="white"/>
<path d="M373.861 15.6875V17H367.189V15.8721L370.43 12.3379C370.785 11.9368 371.065 11.5905 371.271 11.2988C371.476 11.0072 371.619 10.7451 371.701 10.5127C371.788 10.2757 371.831 10.0456 371.831 9.82227C371.831 9.50781 371.772 9.2321 371.653 8.99512C371.539 8.75358 371.371 8.56445 371.147 8.42773C370.924 8.28646 370.653 8.21582 370.334 8.21582C369.965 8.21582 369.655 8.29557 369.404 8.45508C369.154 8.61458 368.965 8.83561 368.837 9.11816C368.709 9.39616 368.646 9.71517 368.646 10.0752H366.998C366.998 9.49642 367.13 8.96777 367.395 8.48926C367.659 8.00618 368.042 7.62337 368.543 7.34082C369.044 7.05371 369.648 6.91016 370.354 6.91016C371.02 6.91016 371.585 7.02181 372.05 7.24512C372.515 7.46842 372.868 7.78516 373.109 8.19531C373.355 8.60547 373.479 9.09082 373.479 9.65137C373.479 9.96126 373.428 10.2689 373.328 10.5742C373.228 10.8796 373.084 11.1849 372.897 11.4902C372.715 11.791 372.499 12.0941 372.248 12.3994C371.997 12.7002 371.722 13.0055 371.421 13.3154L369.268 15.6875H373.861Z" fill="white"/>
<path d="M375.263 16.1797C375.263 15.9245 375.349 15.7103 375.522 15.5371C375.696 15.3594 375.93 15.2705 376.227 15.2705C376.527 15.2705 376.762 15.3594 376.931 15.5371C377.104 15.7103 377.19 15.9245 377.19 16.1797C377.19 16.4349 377.104 16.6491 376.931 16.8223C376.762 16.9954 376.527 17.082 376.227 17.082C375.93 17.082 375.696 16.9954 375.522 16.8223C375.349 16.6491 375.263 16.4349 375.263 16.1797ZM375.27 10.3555C375.27 10.1003 375.356 9.88607 375.529 9.71289C375.702 9.53516 375.937 9.44629 376.233 9.44629C376.534 9.44629 376.769 9.53516 376.938 9.71289C377.111 9.88607 377.197 10.1003 377.197 10.3555C377.197 10.6107 377.111 10.8249 376.938 10.998C376.769 11.1712 376.534 11.2578 376.233 11.2578C375.937 11.2578 375.702 11.1712 375.529 10.998C375.356 10.8249 375.27 10.6107 375.27 10.3555Z" fill="white"/>
<path d="M380.772 11.2783H381.757C382.14 11.2783 382.456 11.2122 382.707 11.0801C382.962 10.9479 383.151 10.7656 383.274 10.5332C383.397 10.3008 383.459 10.0342 383.459 9.7334C383.459 9.41895 383.402 9.15007 383.288 8.92676C383.179 8.69889 383.01 8.52344 382.782 8.40039C382.559 8.27734 382.274 8.21582 381.928 8.21582C381.636 8.21582 381.372 8.27507 381.135 8.39355C380.902 8.50749 380.718 8.67155 380.581 8.88574C380.444 9.09538 380.376 9.34603 380.376 9.6377H378.722C378.722 9.10905 378.861 8.63965 379.139 8.22949C379.417 7.81934 379.795 7.49805 380.273 7.26562C380.757 7.02865 381.299 6.91016 381.9 6.91016C382.543 6.91016 383.104 7.01725 383.582 7.23145C384.065 7.44108 384.441 7.75553 384.71 8.1748C384.979 8.59408 385.113 9.11361 385.113 9.7334C385.113 10.016 385.047 10.3031 384.915 10.5947C384.783 10.8864 384.587 11.153 384.327 11.3945C384.067 11.6315 383.744 11.8252 383.356 11.9756C382.969 12.1214 382.52 12.1943 382.01 12.1943H380.772V11.2783ZM380.772 12.5635V11.6611H382.01C382.593 11.6611 383.09 11.7295 383.5 11.8662C383.915 12.0029 384.252 12.1921 384.512 12.4336C384.771 12.6706 384.961 12.9417 385.079 13.2471C385.202 13.5524 385.264 13.876 385.264 14.2178C385.264 14.6826 385.179 15.0973 385.011 15.4619C384.847 15.8219 384.612 16.1273 384.307 16.3779C384.001 16.6286 383.644 16.8177 383.233 16.9453C382.828 17.0729 382.386 17.1367 381.907 17.1367C381.479 17.1367 381.069 17.0775 380.677 16.959C380.285 16.8405 379.934 16.665 379.624 16.4326C379.314 16.1956 379.068 15.9017 378.886 15.5508C378.708 15.1953 378.619 14.7852 378.619 14.3203H380.267C380.267 14.6165 380.335 14.8786 380.472 15.1064C380.613 15.3298 380.809 15.5052 381.06 15.6328C381.315 15.7604 381.606 15.8242 381.935 15.8242C382.281 15.8242 382.579 15.7627 382.83 15.6396C383.081 15.5166 383.272 15.3343 383.404 15.0928C383.541 14.8512 383.609 14.5596 383.609 14.2178C383.609 13.8304 383.534 13.516 383.384 13.2744C383.233 13.0329 383.019 12.8551 382.741 12.7412C382.463 12.6227 382.135 12.5635 381.757 12.5635H380.772Z" fill="white"/>
<path d="M393.282 11.1895V12.8164C393.282 13.5957 393.205 14.2611 393.05 14.8125C392.899 15.3594 392.681 15.8037 392.394 16.1455C392.106 16.4873 391.762 16.738 391.361 16.8975C390.965 17.057 390.521 17.1367 390.028 17.1367C389.636 17.1367 389.272 17.0866 388.935 16.9863C388.602 16.8861 388.301 16.7288 388.032 16.5146C387.763 16.3005 387.533 16.0247 387.342 15.6875C387.155 15.3457 387.009 14.9378 386.904 14.4639C386.804 13.9899 386.754 13.4408 386.754 12.8164V11.1895C386.754 10.4056 386.831 9.74479 386.986 9.20703C387.141 8.66471 387.362 8.22493 387.649 7.8877C387.937 7.5459 388.278 7.29753 388.675 7.14258C389.076 6.98763 389.522 6.91016 390.015 6.91016C390.411 6.91016 390.776 6.96029 391.108 7.06055C391.446 7.15625 391.746 7.30892 392.011 7.51855C392.28 7.72819 392.507 8.00163 392.694 8.33887C392.886 8.67155 393.032 9.07487 393.132 9.54883C393.232 10.0182 393.282 10.5651 393.282 11.1895ZM391.635 13.0488V10.9434C391.635 10.5469 391.612 10.1982 391.566 9.89746C391.521 9.59212 391.452 9.33464 391.361 9.125C391.275 8.91081 391.165 8.73763 391.033 8.60547C390.901 8.46875 390.751 8.37077 390.582 8.31152C390.413 8.24772 390.224 8.21582 390.015 8.21582C389.759 8.21582 389.532 8.26595 389.331 8.36621C389.131 8.46191 388.962 8.61686 388.825 8.83105C388.688 9.04525 388.584 9.3278 388.511 9.67871C388.442 10.0251 388.408 10.4466 388.408 10.9434V13.0488C388.408 13.4499 388.431 13.8031 388.477 14.1084C388.522 14.4137 388.59 14.6758 388.682 14.8945C388.773 15.1087 388.882 15.2865 389.01 15.4277C389.142 15.5645 389.292 15.6647 389.461 15.7285C389.634 15.7923 389.823 15.8242 390.028 15.8242C390.288 15.8242 390.518 15.7741 390.719 15.6738C390.919 15.5736 391.088 15.4141 391.225 15.1953C391.361 14.972 391.464 14.6826 391.532 14.3271C391.601 13.9717 391.635 13.5456 391.635 13.0488Z" fill="white"/>
<path fill-rule="evenodd" clip-rule="evenodd" d="M348 5.875V5L345 5V5.875H342V19H351V5.875H348Z" fill="white"/>
<path fill-rule="evenodd" clip-rule="evenodd" d="M319 19H333V5L319 19Z" fill="white"/>
<path d="M298.977 8.01593L308 19L317.023 8.01593C314.512 6.12256 311.387 5 308 5C304.613 5 301.488 6.12256 298.977 8.01593Z" fill="white"/>
</svg>
